<svg width="16" height="16" viewBox="0 0 16 16" fill="none" xmlns="http://www.w3.org/2000/svg"><path fill-rule="evenodd" clip-rule="evenodd" d="M9.00019 0H7.00019V1.51577C6.06065 1.57603 5.16405 1.81295
      4.44598 2.29105C3.55635 2.88339 3.0002 3.81371 3.0002 5.00002C3.0002 5.71459 3.16074 6.34762 3.50098
      6.88075C3.84033 7.41251 4.31121 7.7709 4.81048 8.01534C5.47334 8.33986 6.25902 8.49357 7.00019
      8.58746V11.4665C6.36336 11.3835 5.71704 11.1541 5.14401 10.8602C4.39503 10.4761 3.92077 10.0608 3.8002
      9.90001L2.2002 11.1C2.57962 11.6059 3.35536 12.1906 4.23138 12.6398C5.00727 13.0377 5.97449 13.3882 7.00019
      13.4779V15H9.00019V13.4388C9.63265 13.3781 10.2819 13.2598 10.8635 13.0331C11.4133 12.8187 11.9591 12.4865
      12.367 11.9632C12.7851 11.4268 13.0002 10.7637 13.0002 10C13.0002 9.32496 12.8279 8.72371 12.4606 8.22684C12.1004 7.73964
      11.6139 7.43557 11.1266 7.23761C10.4868 6.97771 9.72123 6.85768 9.00019 6.77922V3.59412C9.13751 3.62101 9.27286 3.65555
      9.40779 3.69994C9.95629 3.88037 10.5619 4.24892 11.2002 5.10001L12.8002 3.90001C11.9385 2.75111 11.0042 2.11966 10.0328
      1.80009C9.68132 1.68448 9.33381 1.61339 9.00019 1.56968V0ZM7.00019 3.52132C6.36604 3.57736 5.87908 3.73963 5.55441 3.9558C5.19405
      4.19574 5.0002 4.51542 5.0002 5.00002C5.0002 5.41044 5.08965 5.65241 5.18691 5.80483C5.28506 5.95861 5.43918 6.09631 5.68991
      6.21906C6.03262 6.38685 6.47067 6.49037 7.00019 6.56796V3.52132ZM9.00019 8.79348V11.4275C9.42443 11.3776 9.81154 11.2966 10.1369
      11.1697C10.4621 11.0429 10.6663 10.8919 10.7896 10.7337C10.9028 10.5885 11.0002 10.3715 11.0002 10C11.0002 9.67507 10.9225 9.51069
      10.8523 9.41577C10.775 9.31118 10.6365 9.19727 10.3738 9.09054C10.0105 8.94295 9.55313 8.85966 9.00019 8.79348Z" fill="currentColor"></path></svg>