<svg width="16" height="16" viewBox="0 0 16 16" fill="none" xmlns="http://www.w3.org/2000/svg" aria-hidden="true"><path d="M11.3033 8.06066L10.5962 7.35355L6.76336 10.5967C6.35242 10.9444 6.32644 11.5691 6.70708 11.9497C7.08773
                12.3304 7.71241 12.3044 8.06013 11.8935L11.3033 8.06066Z" fill="currentColor"></path><path fill-rule="evenodd" clip-rule="evenodd" d="M16 11C16 12.4571 15.6104 13.8233 14.9297 15H1.07026C0.389577 13.8233 0 12.4571 0 11C0 6.58172
        3.58172 3 8 3C12.4183 3 16 6.58172 16 11ZM14 11C14 11.7031 13.8798 12.3757 13.6592 13H2.34082C2.1202
         12.3757 2 11.7031 2 11C2 7.68629 4.68629 5 8 5C11.3137 5 14 7.68629 14 11Z" fill="currentColor"></path></svg>