<svg width="16" height="16" viewBox="0 0 16 16" fill="none" xmlns="http://www.w3.org/2000/svg" aria-hidden="true"><svg width="16" height="16" viewBox="0 0 16 16" fill="none" xmlns="http://www.w3.org/2000/svg"><path d="M8 1C6.89543 1 6 1.89543 6 3C6 4.10457 6.89543 5 8 5C9.10457 5 10 4.10457 10 3C10
      1.89543 9.10457 1 8 1Z" fill="currentColor"></path><path d="M3 8C3 6.89543 3.89543 6 5 6C6.10457 6 7 6.89543 7 8C7 9.10457 6.10457 10 5 10C3.89543 10 3 9.10457 3 8Z" fill="currentColor"></path><path d="M9 8C9 6.89543 9.89543 6 11 6C12.1046 6 13 6.89543 13 8C13 9.10457 12.1046 10 11 10C9.89543 10 9 9.10457 9 8Z" fill="currentColor"></path><path d="M1 13C1 11.8954 1.89543 11 3 11C4.10457 11 5 11.8954 5 13C5 14.1046 4.10457 15 3 15C1.89543 15 1 14.1046 1 13Z" fill="currentColor"></path><path d="M8 11C6.89543 11 6 11.8954 6 13C6 14.1046 6.89543 15 8 15C9.10457 15 10 14.1046 10 13C10 11.8954 9.10457 11 8 11Z" fill="currentColor"></path><path d="M11 13C11 11.8954 11.8954 11 13 11C14.1046 11 15 11.8954 15 13C15 14.1046 14.1046 15 13 15C11.8954 15 11 14.1046 11 13Z" fill="currentColor"></path></svg></svg>