<svg width="48" height="50" viewBox="0 0 48 50" fill="none" xmlns="http://www.w3.org/2000/svg">
  <path fillRule="evenodd" clipRule="evenodd" d="M34.5817 36.5382C30.8769 36.5382 27.873 33.5248 27.873 29.8076C27.873 26.0903 30.8769 23.0767 34.5817 23.0767C38.2861 23.0767 41.2897 26.0903 41.2897 29.8076C41.2897 33.5248 38.2861 36.5382 34.5817 36.5382ZM36.903 16.4559V10.5035C38.4632 9.76947 39.5567 8.19756 39.5567 6.37323V6.23572C39.5567 3.71833 37.4877 1.6584 34.9599 1.6584H34.8218C32.2937 1.6584 30.2247 3.71833 30.2247 6.23572V6.37323C30.2247 8.19756 31.3184 9.76947 32.8786 10.5035V16.4562C30.5555 16.8134 28.4328 17.7678 26.6811 19.1719L10.2678 6.45788C10.3758 6.04412 10.4516 5.61752 10.4522 5.16985C10.4559 2.31815 8.1374 0.00367135 5.27357 4.36231e-06C2.41005 -0.00366263 0.0854113 2.30501 0.0820356 5.15671C0.078353 8.00809 2.39685 10.3226 5.26068 10.3262C6.19391 10.3275 7.05748 10.0634 7.81487 9.63471L23.9606 22.1416C22.5873 24.2055 21.7832 26.6776 21.7832 29.339C21.7832 32.1253 22.6671 34.7022 24.161 36.8221L19.2509 41.7114C18.8626 41.5956 18.4597 41.5143 18.0331 41.5143C15.6803 41.5143 13.7724 43.4141 13.7724 45.7573C13.7724 48.1005 15.6803 50 18.0331 50C20.3866 50 22.2942 48.1005 22.2942 45.7573C22.2942 45.3328 22.2129 44.9313 22.0963 44.545L26.9533 39.7086C29.1579 41.3847 31.9033 42.391 34.8911 42.391C42.1302 42.391 47.9987 36.5473 47.9987 29.339C47.9987 22.8133 43.1843 17.4222 36.903 16.4559Z" fill="#E48359" />
</svg>
