<svg width="16" height="16" viewBox="0 0 16 16" fill="none" xmlns="http://www.w3.org/2000/svg" aria-hidden="true"><svg width="16" height="16" viewBox="0 0 16 16" fill="none" xmlns="http://www.w3.org/2000/svg"><path d="M16 3C16 2.44772 15.5523 2 15 2C14.4477 2 14 2.44772 14 3V13C14 13.5523 14.4477 14
      15 14C15.5523 14 16 13.5523 16 13V3Z" fill="currentColor"></path><path d="M8.58576 7L5.29286 3.70711C4.90234 3.31658 4.90234 2.68342 5.29286 2.29289C5.68339
      1.90237 6.31655 1.90237 6.70708 2.29289L12.4142 8L6.70708 13.7071C6.31655 14.0976 5.68339 14.0976
       5.29286 13.7071C4.90234 13.3166 4.90234 12.6834 5.29286 12.2929L8.58576 9H1C0.447716 9 0 8.55228
       0 8C0 7.44772 0.447716 7 1 7H8.58576Z" fill="currentColor"></path></svg></svg>