<svg width="16" height="16" viewBox="0 0 16 16" fill="none" xmlns="http://www.w3.org/2000/svg" aria-hidden="true"><path d="M11.5 9C10.6716 9 10 9.67157 10 10.5C10 11.3284 10.6716 12 11.5 12C12.3284
      12 13 11.3284 13 10.5C13 9.67157 12.3284 9 11.5 9Z" fill="currentColor"></path><path fill-rule="evenodd" clip-rule="evenodd" d="M1 1C0.447715 1 0 1.44772 0 2V14C0 14.5523 0.447715 15 1 15H15C15.5523 15 16 14.5523 16
      14V2C16 1.44772 15.5523 1 15 1H1ZM2 3V5H14V3H2ZM2 13V7H14V13H2Z" fill="currentColor"></path></svg>