<svg width="50" height="50" viewBox="0 0 50 50" fill="none" xmlns="http://www.w3.org/2000/svg">
  <path d="M20.8118 18.8129C22.4266 17.1307 24.6692 16.0878 27.1473 16.0878C30.444 16.0878 33.3259 17.9269 34.8621 20.6632C36.1965 20.0689 37.6654 19.7325 39.224 19.7325C45.1783 19.7325 50 24.5995 50 30.6104C50 36.6213 45.1783 41.4883 39.224 41.4883C38.4952 41.4883 37.7887 41.4098 37.1047 41.2752C35.7591 43.6863 33.1801 45.3124 30.231 45.3124C28.9975 45.3124 27.8201 45.032 26.7885 44.5162C25.4205 47.7347 22.2247 50 18.5131 50C14.6445 50 11.3366 47.5553 10.0807 44.1125C9.53129 44.2246 8.94819 44.2919 8.3651 44.2919C3.73402 44.2919 0 40.5239 0 35.8587C0 32.7411 1.68199 30.016 4.17134 28.5582C3.65553 27.3806 3.3752 26.0686 3.3752 24.7004C3.3752 19.34 7.72595 15 13.0859 15C16.2368 15 19.0289 16.4915 20.8118 18.8129Z"
        fill="#139CD8"/>
  <path d="M7.24472 33.1562C7.21108 33.2347 7.25593 33.2572 7.26714 33.2684C7.35685 33.3357 7.45777 33.3805 7.54747 33.4366C8.05207 33.7057 8.53424 33.7842 9.03884 33.7842C10.0592 33.7842 10.6984 33.2347 10.6984 32.36V32.3376C10.6984 31.5302 9.98076 31.2274 9.30796 31.0143L9.21825 30.9919C8.71366 30.8237 8.27634 30.6891 8.27634 30.3527V30.3302C8.27634 30.0387 8.53424 29.8368 8.92671 29.8368C9.36403 29.8368 9.89105 29.9826 10.2274 30.1732C10.2274 30.1732 10.3284 30.2405 10.362 30.1396C10.3844 30.0835 10.5526 29.6237 10.5751 29.5789C10.5975 29.5228 10.5638 29.4891 10.5302 29.4667C10.149 29.2312 9.61072 29.0742 9.06127 29.0742H8.96035C8.01843 29.0742 7.36806 29.6462 7.36806 30.4536V30.476C7.36806 31.3283 8.08571 31.6087 8.76972 31.7993L8.88185 31.833C9.37524 31.99 9.80134 32.1133 9.80134 32.461V32.4834C9.80134 32.7974 9.52101 33.0329 9.08369 33.0329C8.91549 33.0329 8.35483 33.0329 7.76053 32.6516C7.69325 32.6067 7.64839 32.5843 7.59233 32.5395C7.55869 32.517 7.49141 32.4946 7.45777 32.5843L7.24472 33.1562Z"
        fill="white"/>
  <path d="M22.2564 33.1562C22.2228 33.2347 22.2676 33.2572 22.2789 33.2684C22.3686 33.3357 22.4695 33.3805 22.5592 33.4366C23.0638 33.7057 23.546 33.7842 24.0506 33.7842C25.071 33.7842 25.7101 33.2347 25.7101 32.36V32.3376C25.7101 31.5302 24.9925 31.2274 24.3197 31.0143L24.23 30.9919C23.7254 30.8237 23.2881 30.6891 23.2881 30.3527V30.3302C23.2881 30.0387 23.546 29.8368 23.9384 29.8368C24.3757 29.8368 24.9028 29.9826 25.2392 30.1732C25.2392 30.1732 25.3401 30.2405 25.3737 30.1396C25.3962 30.0835 25.5643 29.6237 25.5868 29.5789C25.6092 29.5228 25.5756 29.4891 25.5419 29.4667C25.1607 29.2312 24.6224 29.0742 24.073 29.0742H23.9721C23.0302 29.0742 22.3798 29.6462 22.3798 30.4536V30.476C22.3798 31.3283 23.1086 31.6087 23.7814 31.7993L23.8936 31.8329C24.387 31.99 24.8131 32.1133 24.8131 32.461V32.4834C24.8131 32.7974 24.5327 33.0329 24.0954 33.0329C23.9272 33.0329 23.3665 33.0329 22.7722 32.6516C22.705 32.6067 22.6601 32.5843 22.604 32.5395C22.5816 32.5282 22.5031 32.4946 22.4695 32.5843L22.2564 33.1562Z"
        fill="white"/>
  <path d="M33.3595 30.5092C33.281 30.2288 33.1464 29.9709 32.967 29.769C32.7876 29.556 32.5746 29.3877 32.3054 29.2644C32.0475 29.141 31.7336 29.085 31.3859 29.085C31.0383 29.085 30.7244 29.1522 30.4665 29.2644C30.2086 29.3877 29.9843 29.556 29.8049 29.769C29.6255 29.9821 29.5021 30.2288 29.4124 30.5092C29.3339 30.7895 29.2891 31.1035 29.2891 31.4288C29.2891 31.754 29.3339 32.068 29.4124 32.3483C29.4909 32.6287 29.6255 32.8866 29.8049 33.0885C29.9843 33.3016 30.1973 33.4698 30.4665 33.5819C30.7244 33.7053 31.0383 33.7614 31.3859 33.7614C31.7336 33.7614 32.0363 33.7053 32.3054 33.5819C32.5633 33.4586 32.7876 33.2904 32.967 33.0885C33.1464 32.8754 33.2698 32.6287 33.3595 32.3483C33.438 32.068 33.4828 31.754 33.4828 31.4288C33.494 31.1035 33.4492 30.7895 33.3595 30.5092ZM32.5073 31.4288C32.5073 31.9222 32.4176 32.3147 32.2269 32.5951C32.0475 32.8642 31.7784 32.9988 31.3972 32.9988C31.0159 32.9988 30.7468 32.8642 30.5674 32.5951C30.388 32.3147 30.2983 31.9222 30.2983 31.4288C30.2983 30.9353 30.388 30.5428 30.5674 30.2737C30.7468 30.0045 31.0159 29.87 31.3972 29.87C31.7784 29.87 32.0475 30.0045 32.2269 30.2737C32.4176 30.5428 32.5073 30.9353 32.5073 31.4288Z"
        fill="white"/>
  <path fill-rule="evenodd" clip-rule="evenodd"
        d="M40.3904 32.8647C40.368 32.7862 40.2783 32.8086 40.2783 32.8086C40.155 32.8535 40.0204 32.8983 39.8746 32.9207C39.7289 32.9432 39.5719 32.9544 39.4037 32.9544C38.9888 32.9544 38.6636 32.831 38.4281 32.5843C38.1927 32.3376 38.0581 31.9451 38.0581 31.418C38.0581 30.9358 38.1814 30.5657 38.3833 30.2854C38.5963 30.005 38.9103 29.8704 39.3364 29.8704C39.684 29.8704 39.9643 29.9153 40.2447 30.005C40.2447 30.005 40.312 30.0387 40.3456 29.9489C40.4241 29.7359 40.4802 29.5901 40.5586 29.3658C40.5811 29.2985 40.525 29.2761 40.5026 29.2649C40.3904 29.22 40.1325 29.1527 39.9307 29.1191C39.7513 29.0966 39.527 29.0742 39.2915 29.0742C38.9327 29.0742 38.6075 29.1415 38.3384 29.2536C38.0693 29.377 37.8338 29.5452 37.6432 29.7583C37.4638 29.9714 37.318 30.2181 37.2283 30.4984C37.1386 30.7788 37.0938 31.0928 37.0938 31.418C37.0938 32.1245 37.2844 32.6965 37.6656 33.1226C38.0469 33.5487 38.6188 33.7618 39.3588 33.7618C39.7961 33.7618 40.2447 33.6721 40.5699 33.5487C40.5699 33.5487 40.6371 33.5151 40.6035 33.4478L40.3904 32.8647Z"
        fill="white"/>
  <path fill-rule="evenodd" clip-rule="evenodd"
        d="M44.7738 30.3527C44.7065 30.0723 44.5159 29.8032 44.4038 29.6798C44.2132 29.478 44.0337 29.3434 43.8543 29.2649C43.6189 29.164 43.3385 29.0967 43.0245 29.0967C42.6657 29.0967 42.3293 29.1528 42.0714 29.2873C41.8023 29.4107 41.578 29.5789 41.3986 29.792C41.2192 30.005 41.0959 30.2518 41.0062 30.5433C40.9165 30.8237 40.8828 31.1377 40.8828 31.4629C40.8828 31.7993 40.9277 32.1133 41.0174 32.3937C41.1071 32.6741 41.2416 32.9208 41.4323 33.1338C41.6229 33.3357 41.8696 33.5039 42.1611 33.6161C42.4527 33.7282 42.8115 33.7843 43.2152 33.7843C44.0562 33.7843 44.4935 33.5936 44.6729 33.4927C44.7065 33.4703 44.7402 33.4478 44.6953 33.3581L44.5047 32.8311C44.4711 32.7526 44.3926 32.7862 44.3926 32.7862C44.1795 32.8647 43.888 32.9993 43.204 32.9993C42.7554 32.9993 42.419 32.8647 42.2172 32.6628C42.0041 32.4498 41.892 32.1358 41.8808 31.6984H44.7738C44.7738 31.6984 44.8523 31.6984 44.8635 31.6199C44.8635 31.5638 44.9644 31.0031 44.7738 30.3527ZM41.892 30.9583C41.9369 30.6779 42.0041 30.4536 42.1275 30.2742C42.3069 30.005 42.576 29.848 42.9573 29.848C43.3385 29.848 43.5852 29.9938 43.7646 30.2742C43.888 30.4536 43.9328 30.6891 43.9552 30.9583H41.892Z"
        fill="white"/>
  <path fill-rule="evenodd" clip-rule="evenodd"
        d="M21.5629 30.3527C21.4956 30.0723 21.305 29.8032 21.1928 29.6798C21.0022 29.478 20.8228 29.3434 20.6434 29.2649C20.4079 29.164 20.1276 29.0967 19.8136 29.0967C19.4548 29.0967 19.1184 29.1528 18.8605 29.2873C18.5914 29.4107 18.3671 29.5789 18.1877 29.792C18.0083 30.005 17.8849 30.2518 17.7952 30.5433C17.7055 30.8237 17.6719 31.1377 17.6719 31.4629C17.6719 31.7993 17.7167 32.1133 17.8064 32.3937C17.8961 32.6741 18.0307 32.9208 18.2213 33.1338C18.4119 33.3357 18.6586 33.5039 18.9502 33.6161C19.2417 33.7282 19.6006 33.7843 20.0042 33.7843C20.8452 33.7843 21.2825 33.5936 21.462 33.4927C21.4956 33.4703 21.5292 33.4478 21.4844 33.3581L21.2938 32.8311C21.2601 32.7526 21.1816 32.7862 21.1816 32.7862C20.9686 32.8647 20.677 32.9993 19.993 32.9993C19.5445 32.9993 19.2081 32.8647 19.0063 32.6628C18.7932 32.4498 18.6811 32.1358 18.6699 31.6984H21.5629C21.5629 31.6984 21.6414 31.6984 21.6526 31.6199C21.6526 31.5638 21.7535 31.0031 21.5629 30.3527ZM18.6811 30.9583C18.7259 30.6779 18.7932 30.4536 18.9165 30.2742C19.096 30.005 19.3651 29.848 19.7463 29.848C20.1276 29.848 20.3743 29.9938 20.5537 30.2742C20.677 30.4536 20.7219 30.6891 20.7443 30.9583H18.6811Z"
        fill="white"/>
  <path d="M13.5662 30.8124C13.4541 30.8012 13.2971 30.8012 13.1177 30.8012C12.871 30.8012 12.6243 30.8349 12.4001 30.8909C12.1758 30.947 11.9739 31.0479 11.7945 31.1713C11.6151 31.2947 11.4806 31.4629 11.3796 31.6535C11.2787 31.8442 11.2227 32.0684 11.2227 32.3264C11.2227 32.5843 11.2675 32.8086 11.3572 32.988C11.4469 33.1675 11.5703 33.3245 11.7385 33.4366C11.8955 33.5487 12.0973 33.6385 12.3328 33.6945C12.557 33.7506 12.8149 33.773 13.0953 33.773C13.398 33.773 13.6896 33.7506 13.9811 33.6945C14.2615 33.6497 14.6091 33.5712 14.71 33.5487C14.8109 33.5263 14.9118 33.4927 14.9118 33.4927C14.9791 33.4702 14.9791 33.403 14.9791 33.403V30.7564C14.9791 30.1732 14.8221 29.7471 14.5194 29.4779C14.2166 29.2088 13.7681 29.0742 13.185 29.0742C12.9719 29.0742 12.6131 29.1079 12.4113 29.1415C12.4113 29.1415 11.7833 29.2649 11.5142 29.4667C11.5142 29.4667 11.4581 29.5004 11.4918 29.5789L11.6936 30.1284C11.716 30.1957 11.7945 30.1732 11.7945 30.1732C11.7945 30.1732 11.817 30.162 11.8394 30.1508C12.4001 29.848 13.1065 29.8592 13.1065 29.8592C13.4205 29.8592 13.6559 29.9265 13.8241 30.0499C13.9811 30.1732 14.0596 30.3527 14.0596 30.7452V30.8685C13.8017 30.8349 13.5662 30.8124 13.5662 30.8124ZM12.4113 32.8535C12.2991 32.7637 12.2767 32.7413 12.2431 32.6852C12.187 32.5955 12.1534 32.4722 12.1534 32.304C12.1534 32.046 12.2431 31.8666 12.4113 31.7432C12.4113 31.7432 12.658 31.5302 13.2523 31.5302C13.6672 31.5302 14.0372 31.5974 14.0372 31.5974V32.9207C14.0372 32.9207 13.6672 32.9992 13.2523 33.0217C12.6804 33.0553 12.4113 32.8535 12.4113 32.8535Z"
        fill="white"/>
  <path fill-rule="evenodd" clip-rule="evenodd"
        d="M36.948 29.3211C36.9705 29.2538 36.9256 29.2202 36.9032 29.2202C36.8583 29.1977 36.6116 29.1529 36.421 29.1417C36.051 29.1192 35.8491 29.1753 35.6697 29.265C35.4903 29.3435 35.2885 29.4781 35.1764 29.6239V29.265C35.1764 29.2202 35.1427 29.1753 35.0979 29.1753H34.3578C34.3129 29.1753 34.2793 29.209 34.2793 29.265V33.5938C34.2793 33.6386 34.3129 33.6835 34.369 33.6835H35.1315C35.1763 33.6835 35.2212 33.6498 35.2212 33.5938V31.4294C35.2212 31.1378 35.2548 30.8462 35.3221 30.6668C35.3894 30.4874 35.4679 30.3416 35.58 30.2407C35.6809 30.1397 35.8043 30.0612 35.9388 30.0276C36.0734 29.9827 36.2192 29.9715 36.3313 29.9715C36.4883 29.9715 36.6453 30.0164 36.6453 30.0164C36.7013 30.0276 36.735 29.9827 36.7574 29.9379C36.7798 29.8033 36.9256 29.3996 36.948 29.3211Z"
        fill="white"/>
  <path fill-rule="evenodd" clip-rule="evenodd"
        d="M29.8052 27.3138C29.7155 27.2802 29.6258 27.269 29.5137 27.2465C29.4016 27.2241 29.267 27.2129 29.1212 27.2129C28.5942 27.2129 28.1793 27.3587 27.899 27.6503C27.6075 27.9418 27.4168 28.3792 27.3159 28.9623L27.2823 29.1642H26.6207C26.6207 29.1642 26.5422 29.1642 26.5198 29.2539L26.4076 29.8595C26.3964 29.9155 26.4301 29.9492 26.4973 29.9492H27.1365L26.4861 33.5714C26.4301 33.863 26.374 34.0985 26.3179 34.2891C26.2506 34.4686 26.1946 34.6031 26.1161 34.7041C26.0376 34.7938 25.9703 34.8723 25.847 34.9059C25.7461 34.9396 25.6339 34.9508 25.5106 34.9508C25.4433 34.9508 25.3424 34.9396 25.2751 34.9284C25.2078 34.9171 25.1742 34.8947 25.1181 34.8835C25.1181 34.8835 25.0396 34.8499 25.0172 34.9284C24.9948 34.9956 24.8266 35.4554 24.8041 35.5227C24.7817 35.5788 24.8154 35.6236 24.849 35.6349C24.9387 35.6685 24.9948 35.6797 25.1181 35.7134C25.2751 35.747 25.4209 35.7582 25.5442 35.7582C25.8133 35.7582 26.0488 35.7246 26.2506 35.6461C26.4525 35.5676 26.6319 35.4442 26.7889 35.276C26.9571 35.0854 27.0692 34.8947 27.1701 34.6256C27.2711 34.3564 27.3608 34.0312 27.428 33.6499L28.0784 29.9604H29.0315C29.0315 29.9604 29.11 29.9604 29.1325 29.8707L29.2446 29.2651C29.2558 29.209 29.2222 29.1754 29.1549 29.1754H28.2242C28.2242 29.153 28.269 28.8278 28.3812 28.525C28.426 28.3904 28.5157 28.2895 28.583 28.211C28.6503 28.1437 28.74 28.0876 28.8297 28.054C28.9194 28.0203 29.0203 28.0091 29.1437 28.0091C29.2334 28.0091 29.3119 28.0203 29.3791 28.0315C29.4689 28.054 29.5025 28.0652 29.5249 28.0652C29.6146 28.0988 29.637 28.0652 29.6483 28.0203L29.8725 27.4147C29.8725 27.3587 29.8165 27.325 29.8052 27.3138Z"
        fill="white"/>
  <path fill-rule="evenodd" clip-rule="evenodd"
        d="M16.8526 33.5818C16.8526 33.6266 16.8189 33.6715 16.7741 33.6715H16.0004C15.9555 33.6715 15.9219 33.6266 15.9219 33.5818V27.3915C15.9219 27.3466 15.9555 27.3018 16.0004 27.3018H16.7741C16.8189 27.3018 16.8526 27.3354 16.8526 27.3915V33.5818Z"
        fill="white"/>
</svg>
