<svg width="50" height="50" viewBox="0 0 50 50" fill="none" xmlns="http://www.w3.org/2000/svg">
  <path d="M10.5049 31.5962C10.5049 34.4871 8.14332 36.8486 5.25244 36.8486C2.36156 36.8486 0 34.4871 0 31.5962C0 28.7053 2.36156 26.3438 5.25244 26.3438H10.5049V31.5962Z"
        fill="#E01E5A"/>
  <path d="M13.1504 31.5962C13.1504 28.7053 15.512 26.3438 18.4028 26.3438C21.2937 26.3438 23.6553 28.7053 23.6553 31.5962V44.7477C23.6553 47.6385 21.2937 50.0001 18.4028 50.0001C15.512 50.0001 13.1504 47.6385 13.1504 44.7477V31.5962Z"
        fill="#E01E5A"/>
  <path d="M18.4028 10.5049C15.512 10.5049 13.1504 8.14332 13.1504 5.25244C13.1504 2.36156 15.512 0 18.4028 0C21.2937 0 23.6553 2.36156 23.6553 5.25244V10.5049H18.4028Z"
        fill="#36C5F0"/>
  <path d="M18.4039 13.1514C21.2948 13.1514 23.6564 15.5129 23.6564 18.4038C23.6564 21.2947 21.2948 23.6563 18.4039 23.6563H5.25244C2.36156 23.6563 0 21.2947 0 18.4038C0 15.5129 2.36156 13.1514 5.25244 13.1514C5.25244 13.1514 18.4039 13.1514 18.4039 13.1514Z"
        fill="#36C5F0"/>
  <path d="M39.4961 18.4038C39.4961 15.5129 41.8577 13.1514 44.7485 13.1514C47.6394 13.1514 50.001 15.5129 50.001 18.4038C50.001 21.2947 47.6394 23.6563 44.7485 23.6563H39.4961V18.4038Z"
        fill="#2EB67D"/>
  <path d="M36.8486 18.4039C36.8486 21.2948 34.4871 23.6564 31.5962 23.6564C28.7053 23.6564 26.3438 21.2948 26.3438 18.4039V5.25244C26.3438 2.36156 28.7053 0 31.5962 0C34.4871 0 36.8486 2.36156 36.8486 5.25244V18.4039Z"
        fill="#2EB67D"/>
  <path d="M31.5962 39.4951C34.4871 39.4951 36.8486 41.8567 36.8486 44.7476C36.8486 47.6384 34.4871 50 31.5962 50C28.7053 50 26.3438 47.6384 26.3438 44.7476V39.4951H31.5962Z"
        fill="#ECB22E"/>
  <path d="M31.5962 36.8486C28.7053 36.8486 26.3438 34.4871 26.3438 31.5962C26.3438 28.7053 28.7053 26.3438 31.5962 26.3438H44.7477C47.6385 26.3438 50.0001 28.7053 50.0001 31.5962C50.0001 34.4871 47.6385 36.8486 44.7477 36.8486H31.5962Z"
        fill="#ECB22E"/>
</svg>
