<svg width="50" height="50" viewBox="0 0 50 50" fill="none" xmlns="http://www.w3.org/2000/svg">
  <path d="M13.1483 14.8903C13.1483 12.7473 14.8112 11.9232 17.5655 11.9232C21.515 11.9232 26.5041 13.1868 30.4539 15.4397V2.52744C26.1403 0.714177 21.8789 0 17.5655 0C7.01577 0 0 5.8242 0 15.5495C0 30.7144 19.7481 28.2968 19.7481 34.8351C19.7481 37.3626 17.6694 38.1868 14.759 38.1868C10.4454 38.1868 4.9369 36.3187 0.57138 33.7912V46.8682C5.40439 49.0659 10.2896 50 14.759 50C25.5684 50 33 44.3405 33 34.5054C32.9481 18.1319 13.1478 21.044 13.1478 14.89L13.1483 14.8903Z"
        fill="#6772E5"/>
</svg>
