<svg width="16" height="16" viewBox="0 0 16 16" fill="none" xmlns="http://www.w3.org/2000/svg" aria-hidden="true"><path fill-rule="evenodd" clip-rule="evenodd" d="M2 4C2 1.79086 3.79086 0 6 0C8.20914 0 10 1.79086 10 4C10 6.20914 8.20914 8 6 8C3.79086 8
      2 6.20914 2 4ZM6 6C4.89543 6 4 5.10457 4 4C4 2.89543 4.89543 2 6 2C7.10457 2 8 2.89543 8 4C8
       5.10457 7.10457 6 6 6Z" fill="currentColor"></path><path d="M13 4C13 5.10457 12.1046 6 11 6V8C13.2091 8 15 6.20914 15 4C15 1.79086 13.2091 0 11 0V2C12.1046 2 13 2.89543 13 4Z" fill="currentColor"></path><path fill-rule="evenodd" clip-rule="evenodd" d="M10 15H2C1.44772 15 1 14.5523 1 14C1 11.2386 3.23858 9 6 9C8.76142 9 11 11.2386
      11 14C11 14.5523 10.5523 15 10 15ZM8.82929 13C8.41746 11.8348 7.30622 11 6 11C4.69378
      11 3.58254 11.8348 3.17071 13H8.82929Z" fill="currentColor"></path><path d="M11 11C12.3062 11 13.4175 11.8348 13.8293 13H12V15H15C15.5523 15 16 14.5523 16 14C16
      11.2386 13.7614 9 11 9V11Z" fill="currentColor"></path></svg>