<svg width="16" height="16" viewBox="0 0 16 16" fill="none" xmlns="http://www.w3.org/2000/svg" aria-hidden="true">
  <path fill-rule="evenodd" clip-rule="evenodd" d="M12 0C10.8954 0 10 0.89543 10 2C8.34315 2 7 3.34315 7 5V6C7 6.55228 6.55228 7 6 7C6 5.89543 5.10457 5 4
      5H2C0.895431 5 0 5.89543 0 7V9C0 10.1046 0.89543 11 2 11H4C5.10457 11 6 10.1046 6 9C6.55228 9 7 9.44772 7 10V11C7
      12.6569 8.34315 14 10 14C10 15.1046 10.8954 16 12 16H14C15.1046 16 16 15.1046 16 14V12C16 10.8954 15.1046 10 14
      10H12C10.8954 10 10 10.8954 10 12C9.44772 12 9 11.5523 9 11V10C9 9.23164 8.71115 8.53076 8.2361 8C8.71115 7.46925
      9 6.76836 9 6V5C9 4.44772 9.44772 4 10 4C10 5.10457 10.8954 6 12 6H14C15.1046 6 16 5.10457 16 4V2C16 0.895431 15.1046
      0 14 0H12ZM14 2H12V4H14V2ZM4 7H2L2 9H4V7ZM12 12H14V14H12V12Z" fill="currentColor"/>
</svg>
