<svg width="50" height="50" viewBox="0 0 50 50" fill="none" xmlns="http://www.w3.org/2000/svg">
  <g clip-path="url(#clip0_2311_2)">
    <path d="M49.9407 0H0.0654297V50H49.9407V0Z" fill="#FF4F00" />
    <path
      d="M49.9407 25C49.9407 11.1929 38.7758 0 25.0031 0C11.2304 0 0.0654297 11.1929 0.0654297 25C0.0654297 38.8071 11.2304 50 25.0031 50C38.7758 50 49.9407 38.8071 49.9407 25Z"
      fill="#FF4F00" />
    <path
      d="M7.08238 27.5452L7.07526 27.5226L11.5719 23.3957V21.4072H4.35779V23.3957H8.66678L8.6739 23.4147L4.22119 27.5452V29.5336H11.6443V27.5452H7.08238Z"
      fill="#FFFDF9" />
    <path
      d="M16.072 21.2185C15.2399 21.2185 14.5617 21.3443 14.0375 21.5959C13.5492 21.8153 13.1379 22.1765 12.857 22.633C12.5881 23.0925 12.4193 23.6038 12.3617 24.1333L14.5506 24.4416C14.6298 23.9741 14.7881 23.6428 15.0257 23.4474C15.2957 23.2433 15.6284 23.14 15.9663 23.1558C16.4106 23.1558 16.7328 23.2748 16.9331 23.5129C17.1315 23.751 17.2324 24.0809 17.2324 24.5155V24.7321H15.1278C14.0565 24.7321 13.2869 24.9703 12.8189 25.4466C12.351 25.9229 12.1174 26.5515 12.1182 27.3326C12.1182 28.1328 12.3518 28.7281 12.8189 29.1186C13.2861 29.5091 13.8735 29.7033 14.5815 29.7009C15.4596 29.7009 16.135 29.398 16.6077 28.7924C16.8869 28.4201 17.0863 27.9941 17.1932 27.541H17.2728L17.5745 29.5294H19.558V24.494C19.558 23.4534 19.2844 22.6473 18.7373 22.0758C18.1901 21.5043 17.3017 21.2185 16.072 21.2185ZM16.7657 27.4255C16.4508 27.6886 16.0388 27.8196 15.5257 27.8196C15.1028 27.8196 14.8091 27.7454 14.6444 27.5969C14.5642 27.5268 14.5003 27.4396 14.4575 27.3419C14.4146 27.2441 14.3936 27.1381 14.3962 27.0314C14.3915 26.9306 14.4073 26.8301 14.4426 26.7358C14.4779 26.6414 14.532 26.5553 14.6017 26.4825C14.6769 26.4118 14.7657 26.357 14.8627 26.3215C14.9597 26.2861 15.0628 26.2708 15.1658 26.2765H17.236V26.4134C17.2401 26.607 17.2 26.7989 17.1184 26.9744C17.0369 27.1499 16.9162 27.3041 16.7657 27.4255Z"
      fill="#FFFDF9" />
    <path d="M31.5475 21.4072H29.2041V29.5349H31.5475V21.4072Z" fill="#FFFDF9" />
    <path
      d="M45.3924 21.4072C44.7305 21.4072 44.2087 21.6415 43.8271 22.1097C43.5531 22.4464 43.3449 22.9436 43.2024 23.6017H43.1334L42.8271 21.4072H40.8257V29.5336H43.1691V25.3662C43.1691 24.8407 43.2918 24.438 43.5373 24.1577C43.7827 23.8775 44.2357 23.7375 44.896 23.7375H45.7855V21.4072H45.3924Z"
      fill="#FFFDF9" />
    <path
      d="M38.4922 21.6724C37.9451 21.3461 37.255 21.1835 36.4221 21.1843C35.1109 21.1843 34.0847 21.5585 33.3436 22.307C32.6024 23.0556 32.2319 24.0875 32.2319 25.4028C32.213 26.198 32.3862 26.986 32.7366 27.6996C33.0574 28.3355 33.557 28.8633 34.1738 29.2178C34.7946 29.5773 35.5329 29.7575 36.3888 29.7583C37.1292 29.7583 37.7476 29.644 38.2441 29.4154C38.7108 29.21 39.1173 28.8883 39.4246 28.4806C39.7173 28.0806 39.9347 27.6303 40.066 27.1519L38.0468 26.5851C37.9619 26.8963 37.7983 27.18 37.5718 27.4091C37.3437 27.6376 36.9617 27.752 36.4256 27.752C35.7882 27.752 35.3132 27.569 35.0004 27.2031C34.7735 26.9388 34.631 26.5614 34.5681 26.072H40.0968C40.1194 25.8434 40.1312 25.6516 40.1312 25.4969V24.9909C40.1447 24.311 40.0045 23.637 39.7215 23.019C39.4565 22.4561 39.0281 21.9868 38.4922 21.6724ZM36.3544 23.1215C37.3045 23.1215 37.8433 23.5901 37.9709 24.5276H34.6097C34.663 24.2149 34.7923 23.92 34.9861 23.6691C35.2942 23.3033 35.7502 23.1206 36.3544 23.1215Z"
      fill="#FFFDF9" />
    <path
      d="M30.4039 18.132C30.2276 18.1259 30.0519 18.1555 29.8872 18.2189C29.7225 18.2824 29.5722 18.3783 29.4453 18.5011C29.3201 18.625 29.222 18.7738 29.1573 18.9378C29.0924 19.1018 29.0622 19.2775 29.0687 19.4538C29.0625 19.6311 29.0927 19.808 29.1575 19.9731C29.2225 20.1384 29.3206 20.2884 29.4458 20.4139C29.5711 20.5394 29.7209 20.6376 29.8857 20.7025C30.0505 20.7674 30.227 20.7975 30.4039 20.791C30.5797 20.7976 30.755 20.7675 30.9186 20.7025C31.0823 20.6375 31.2306 20.5391 31.3541 20.4135C31.4767 20.2866 31.5725 20.1361 31.6356 19.9713C31.6985 19.8063 31.7277 19.6303 31.7212 19.4538C31.7293 19.2783 31.7008 19.103 31.6376 18.9391C31.5743 18.7754 31.4777 18.6265 31.3538 18.5023C31.23 18.378 31.0816 18.281 30.9182 18.2175C30.7549 18.1539 30.579 18.124 30.4039 18.132Z"
      fill="#FFFDF9" />
    <path
      d="M25.5627 21.1843C24.7646 21.1843 24.1233 21.4355 23.6386 21.9379C23.28 22.3103 23.0167 22.8659 22.8489 23.6049H22.774L22.4676 21.4105H20.4663V31.8694H22.8097V27.5615H22.8951C22.9667 27.8488 23.0669 28.128 23.1945 28.395C23.3927 28.8299 23.7178 29.1944 24.1268 29.4404C24.551 29.6724 25.0287 29.7878 25.5117 29.7749C26.4927 29.7749 27.2398 29.3919 27.7528 28.626C28.2659 27.86 28.5225 26.7911 28.5225 25.4195C28.5225 24.0946 28.2743 23.0575 27.7778 22.3083C27.2814 21.5589 26.543 21.1843 25.5627 21.1843ZM25.8003 27.0733C25.5272 27.4701 25.0996 27.6686 24.5176 27.6686C24.2777 27.6798 24.0385 27.6334 23.8199 27.5334C23.6015 27.4334 23.4098 27.2826 23.2609 27.0935C22.9577 26.7118 22.8065 26.189 22.8073 25.5254V25.3706C22.8073 24.6968 22.9585 24.1808 23.2609 23.8228C23.5634 23.4648 23.9823 23.2878 24.5176 23.2918C25.1098 23.2918 25.5401 23.4803 25.8086 23.8573C26.077 24.2344 26.2112 24.7603 26.2112 25.4349C26.2128 26.1326 26.0767 26.6788 25.8027 27.0733H25.8003Z"
      fill="#FFFDF9" />
  </g>
  <defs>
    <clipPath id="clip0_2311_2">
      <rect width="50" height="50" fill="white" />
    </clipPath>
  </defs>
</svg>
  